<?xml version="1.0" encoding="UTF-8" standalone="no"?>
<!-- Created with Inkscape (http://www.inkscape.org/) -->

<svg
   width="32"
   height="32"
   viewBox="0 0 8.4666665 8.4666666"
   version="1.1"
   id="svg1"
   inkscape:version="1.3.2 (091e20e, 2023-11-25, custom)"
   sodipodi:docname="fullscreen.svg"
   xmlns:inkscape="http://www.inkscape.org/namespaces/inkscape"
   xmlns:sodipodi="http://sodipodi.sourceforge.net/DTD/sodipodi-0.dtd"
   xmlns="http://www.w3.org/2000/svg"
   xmlns:svg="http://www.w3.org/2000/svg">
  <sodipodi:namedview
     id="namedview1"
     pagecolor="#242424"
     bordercolor="#000000"
     borderopacity="0.25"
     inkscape:showpageshadow="2"
     inkscape:pageopacity="0.0"
     inkscape:pagecheckerboard="0"
     inkscape:deskcolor="#000000"
     inkscape:document-units="px"
     inkscape:zoom="23.282145"
     inkscape:cx="9.9432419"
     inkscape:cy="17.631537"
     inkscape:window-width="2560"
     inkscape:window-height="1351"
     inkscape:window-x="-9"
     inkscape:window-y="-9"
     inkscape:window-maximized="1"
     inkscape:current-layer="layer1" />
  <defs
     id="defs1" />
  <g
     inkscape:label="Layer 1"
     inkscape:groupmode="layer"
     id="layer1">
    <path
       id="rect3"
       style="fill:#ffffff;fill-opacity:0.10379747;stroke-width:0.79375;stroke-linecap:round;stroke-linejoin:round"
       d="M 0,0 H 8.4666662 V 8.4666662 H 0 Z" />
    <path
       id="rect1"
       style="color:#000000;fill:#ababab;stroke-linecap:round;stroke-linejoin:round;-inkscape-stroke:none"
       d="M 0.64853922 0.2635498 A 0.38333232 0.38333232 0 0 0 0.2635498 0.64853922 L 0.2635498 2.1166666 L 1.0314616 2.1166666 L 1.0314616 1.0314616 L 2.0458699 1.0314616 L 2.0458699 0.2635498 L 0.64853922 0.2635498 z M 6.2792032 0.2635498 L 6.2792032 1.0314616 L 7.4357217 1.0314616 L 7.4357217 2.1166666 L 8.2010497 2.1166666 L 8.2010497 0.64853922 A 0.38333232 0.38333232 0 0 0 7.8181273 0.2635498 L 6.2792032 0.2635498 z M 0.2635498 6.3499999 L 0.2635498 7.8181273 A 0.38333232 0.38333232 0 0 0 0.64853922 8.2010497 L 2.0458699 8.2010497 L 2.0458699 7.4357217 L 1.0314616 7.4357217 L 1.0314616 6.3499999 L 0.2635498 6.3499999 z M 7.4357217 6.3499999 L 7.4357217 7.4357217 L 6.2792032 7.4357217 L 6.2792032 8.2010497 L 7.8181273 8.2010497 A 0.38333232 0.38333232 0 0 0 8.2010497 7.8181273 L 8.2010497 6.3499999 L 7.4357217 6.3499999 z " />
  </g>
</svg>
